 <svg  version="1.0" xmlns="http://www.w3.org/2000/svg"  width="300.000000pt" height="303.000000pt" viewBox="0 0 300.000000 303.000000"  preserveAspectRatio="xMidYMid meet">  <g transform="translate(0.000000,303.000000) scale(0.050000,-0.050000)" fill="#e6a800" stroke="none"> <path d="M2552 5857 c-36 -52 -208 -139 -224 -114 -28 45 -188 -80 -188 -147 0 -28 -9 -37 -30 -29 -54 21 -116 -62 -104 -139 7 -38 4 -68 -4 -68 -9 0 -26 -35 -39 -77 -29 -97 -29 -109 0 -91 17 10 19 3 9 -24 -9 -21 -18 -56 -21 -78 -3 -22 -20 -89 -38 -149 -20 -67 -33 -179 -33 -295 0 -111 -8 -186 -20 -186 -11 0 -20 -9 -20 -20 0 -11 13 -20 29 -20 37 0 61 -78 33 -106 -12 -12 -21 -58 -20 -103 2 -45 7 -63 11 -41 21 93 28 102 49 65 15 -25 11 -48 -11 -80 -62 -89 -8 -378 118 -623 85 -166 89 -161 -189 -250 -104 -34 -239 -93 -299 -132 -60 -38 -121 -70 -134 -70 -13 0 -38 -14 -56 -31 -17 -18 -31 -27 -31 -20 0 24 -162 -92 -249 -179 -49 -49 -98 -90 -108 -90 -10 0 -24 -21 -31 -47 -6 -26 -61 -122 -121 -214 -101 -151 -199 -365 -221 -478 -5 -25 -17 -55 -26 -68 -10 -13 -50 -122 -90 -243 -39 -121 -86 -265 -104 -320 -45 -136 -72 -274 -83 -436 -8 -104 -17 -134 -37 -127 -15 6 -43 -13 -62 -43 -19 -29 -52 -71 -73 -93 -103 -109 -135 -217 -135 -460 l0 -231 2346 0 2346 0 -29 170 c-45 254 -6 264 78 21 l66 -191 446 0 c246 0 447 6 447 13 0 7 -19 112 -42 232 -30 160 -36 232 -22 272 25 67 27 339 2 354 -28 18 -121 224 -132 295 -5 35 -17 73 -25 84 -8 11 -21 50 -28 88 -7 37 -32 84 -56 105 -24 20 -33 37 -21 37 13 0 17 14 11 32 -9 22 -17 24 -27 8 -8 -14 -20 4 -27 42 -8 36 -4 75 7 86 11 11 20 29 20 41 0 12 -9 8 -20 -9 -15 -23 -19 -13 -20 38 0 37 -17 95 -38 130 -20 34 -43 95 -50 136 -17 93 -52 120 -40 31 7 -54 1 -48 -32 35 -44 109 -55 185 -20 130 13 -20 19 -22 20 -5 0 14 -16 42 -35 62 -19 20 -59 81 -89 135 -30 54 -64 96 -75 93 -11 -2 -14 10 -7 29 10 26 5 30 -25 18 -21 -8 -31 -8 -24 0 22 21 -26 70 -52 54 -13 -8 -10 2 5 21 24 29 24 32 -2 22 -31 -11 -167 87 -147 107 16 15 -70 104 -101 104 -13 0 -29 9 -35 20 -5 12 -8 10 -5 -3 2 -13 21 -34 42 -46 21 -11 50 -32 64 -45 40 -36 -65 -20 -109 17 -42 36 -140 97 -154 97 -5 0 -1 -23 9 -51 11 -29 20 -54 20 -56 0 -2 -18 -4 -40 -4 -44 0 -55 42 -15 57 14 5 18 16 10 24 -8 9 -28 4 -45 -10 -24 -20 -37 -21 -55 -3 -17 17 -12 23 21 23 46 0 59 28 23 51 -13 8 -14 21 -3 36 24 30 23 95 -1 80 -10 -6 -14 -21 -9 -34 5 -13 -15 -41 -44 -62 -40 -30 -46 -32 -25 -5 25 31 21 34 -42 34 -42 0 -81 14 -98 34 -24 29 -23 32 10 20 86 -32 129 -36 144 -12 11 17 6 21 -18 12 -22 -8 -33 -3 -33 17 0 22 14 27 55 18 l55 -12 -56 52 c-31 28 -70 51 -87 51 -17 0 -55 17 -85 39 -65 46 -162 74 -162 46 0 -30 51 -67 70 -50 9 8 11 -6 5 -31 -10 -39 -7 -42 17 -22 16 13 35 18 42 11 7 -7 4 -13 -7 -13 -11 0 -20 -13 -20 -29 0 -16 5 -26 12 -21 7 4 26 -1 41 -10 24 -15 23 -20 -5 -31 -19 -7 -29 -23 -22 -34 8 -13 3 -15 -11 -6 -14 8 -20 20 -13 26 6 7 -23 28 -64 49 -41 20 -59 32 -39 27 22 -7 31 -2 23 11 -7 12 -37 16 -66 10 -29 -6 -42 -6 -28 0 37 17 30 42 -15 54 -36 9 -40 0 -40 -95 0 -119 -39 -242 -159 -499 -63 -137 -76 -183 -57 -195 17 -11 6 -16 -31 -17 -31 0 -53 7 -50 15 4 8 55 110 115 225 149 292 184 428 143 550 -21 59 -21 58 -12 -15 5 -42 1 -71 -8 -65 -10 5 -22 -1 -26 -15 -5 -14 -10 47 -11 135 -1 90 -15 202 -33 254 -23 66 -28 126 -18 207 10 86 6 117 -15 130 -22 14 -23 22 -3 42 64 64 -96 244 -186 209 -29 -11 -182 32 -263 75 -60 32 -62 30 89 71 82 23 185 145 185 220 0 27 119 182 140 182 26 0 86 -234 95 -370 9 -136 8 -142 -43 -169 -54 -29 -65 -51 -33 -70 10 -6 25 0 34 14 11 17 20 5 29 -35 l13 -60 3 68 c2 66 3 67 41 33 41 -38 103 -36 116 4 5 15 -3 21 -22 13 -85 -32 -152 158 -73 207 48 30 54 129 10 165 -32 27 -41 100 -12 100 9 0 31 -28 47 -63 38 -78 67 -19 46 94 -16 88 -39 100 -90 45 l-42 -45 5 66 c2 36 10 69 17 73 6 4 4 69 -5 144 -9 75 -21 183 -26 241 -6 58 -28 134 -50 170 -63 103 -83 160 -88 240 -2 41 -13 83 -23 93 -35 35 -457 248 -498 252 -23 3 -47 6 -54 7 -7 2 -17 22 -23 45 -6 23 -23 38 -38 33 -14 -5 -36 5 -49 22 -16 23 -30 26 -50 11 -31 -23 -57 -24 -91 -2 -34 22 -123 -4 -148 -43 -17 -28 -19 -26 -11 12 12 57 -16 58 -55 2z m498 -530 c99 -15 194 -31 210 -36 17 -4 36 -9 44 -9 37 -5 105 -141 118 -237 11 -76 39 -145 99 -236 46 -71 78 -142 72 -158 -6 -15 0 -33 13 -38 19 -8 19 -10 0 -11 -13 -1 -29 7 -36 18 -7 11 -29 20 -49 20 -20 0 -51 22 -68 48 -39 60 -144 96 -286 99 -115 3 -127 24 -40 73 49 28 60 26 158 -25 139 -73 165 -72 126 3 -85 164 -531 213 -531 58 0 -35 -8 -53 -21 -46 -13 9 -16 -4 -8 -35 11 -45 4 -51 -65 -62 -120 -20 -282 -15 -290 9 -25 74 -456 -8 -456 -87 0 -8 -8 -15 -19 -15 -10 0 -16 16 -12 35 3 19 13 85 21 145 30 225 250 431 520 488 73 15 137 32 142 38 12 11 96 2 358 -39z m301 -596 c95 -40 158 -258 87 -302 -16 -10 -16 -18 2 -29 36 -22 -45 -167 -109 -196 -63 -29 -93 -31 -51 -4 39 25 -51 25 -110 0 -37 -16 -36 -17 10 -20 28 -2 39 -8 25 -13 -75 -31 -357 159 -332 223 5 15 0 45 -12 68 -18 34 -17 39 8 30 16 -7 35 -28 41 -49 23 -71 293 -78 362 -10 23 24 25 31 4 33 -14 1 3 14 39 30 80 35 81 64 4 125 -58 45 -59 45 -59 5 0 -36 -12 -42 -91 -42 -79 0 -89 4 -72 33 13 24 8 45 -19 74 -21 22 -38 48 -38 57 0 27 237 18 311 -13z m-555 -336 c44 -69 113 -156 152 -194 42 -40 72 -88 72 -115 0 -53 -5 -54 -100 -24 -101 32 -358 22 -396 -15 -22 -22 -35 -24 -52 -7 -16 17 -8 35 33 71 63 54 95 125 95 211 0 80 51 198 86 198 16 0 65 -56 110 -125z m-816 -47 c0 -41 8 -51 36 -43 19 5 45 -2 57 -15 24 -25 192 -24 334 2 73 13 76 12 56 -26 -85 -159 -326 -225 -432 -119 -65 65 -118 253 -71 253 11 0 20 -24 20 -52z m55 -271 c-15 -10 -34 -4 -47 13 -17 22 -27 23 -46 4 -19 -19 -22 -17 -11 11 7 19 22 35 32 35 11 0 13 11 5 25 -8 14 10 3 39 -24 39 -36 47 -53 28 -64z m305 -43 c0 -66 -175 -136 -295 -118 -129 20 -23 121 135 129 72 4 137 9 145 11 8 2 15 -7 15 -22z m784 -75 c55 -53 61 -67 40 -100 -13 -21 -24 -51 -24 -67 0 -22 -29 -27 -135 -23 -142 6 -203 -6 -202 -38 0 -11 -10 -23 -21 -27 -12 -4 -22 2 -22 14 0 12 -20 22 -45 23 -44 0 -44 1 -6 30 21 16 54 29 74 29 19 0 42 12 51 26 9 15 46 39 83 54 43 17 75 47 87 83 25 72 41 71 120 -4z m140 -326 c37 -57 -3 -180 -53 -161 -15 6 -46 2 -67 -10 -30 -16 -42 -15 -50 4 -5 15 -39 24 -82 22 -83 -4 -95 24 -22 52 28 10 50 29 50 42 0 13 -14 17 -35 8 -69 -28 -145 -47 -145 -36 0 6 -12 1 -27 -11 -15 -13 -33 -16 -42 -8 -13 14 -36 17 -169 23 -106 5 -6 34 254 75 277 43 361 43 388 0z m655 -653 c-11 -7 -15 -27 -9 -43 7 -17 1 -30 -14 -30 -27 0 -42 82 -24 133 9 25 16 23 39 -9 19 -25 22 -43 8 -51z m351 -596 c-22 -4 -49 -17 -60 -28 -14 -14 -3 -18 32 -12 41 7 51 2 44 -23 -12 -44 -83 -41 -98 4 -16 52 24 93 78 79 42 -12 42 -13 4 -20z m624 -201 c31 -71 29 -90 -9 -66 -13 8 -28 54 -34 104 -6 49 -6 76 1 59 6 -16 25 -60 42 -97z m-835 -42 c22 -14 23 -24 4 -47 -18 -23 -17 -34 8 -55 27 -22 35 -22 51 2 16 23 19 21 14 -11 -3 -22 2 -51 11 -65 10 -16 4 -25 -16 -25 -17 0 -31 12 -31 27 0 16 -19 27 -45 25 -25 -1 -61 14 -80 33 -39 39 -46 75 -14 75 12 0 16 -8 10 -18 -6 -10 8 -13 32 -7 39 10 40 14 10 35 -60 44 -19 72 46 31z m918 -188 c7 -36 -36 -38 -62 -3 -24 33 -17 47 20 41 19 -2 38 -20 42 -38z m-435 -28 c0 -8 4 -31 8 -50 3 -19 -2 -35 -12 -35 -10 0 -18 16 -18 35 -1 30 -3 31 -20 5 -22 -34 -26 -19 -8 28 13 33 47 44 50 17z m320 -223 c-5 -16 0 -23 10 -17 11 7 19 -5 19 -26 0 -22 -7 -39 -15 -39 -9 0 -16 7 -16 15 0 9 -20 38 -45 66 -25 28 -47 59 -49 70 -1 10 -9 35 -17 55 -8 21 14 9 54 -30 38 -36 64 -79 59 -94z m-287 23 c8 -81 17 -118 42 -165 27 -49 26 -49 -26 5 -29 30 -64 55 -77 55 -17 1 -16 6 3 17 14 10 24 30 22 45 -6 47 0 78 17 78 8 0 17 -16 19 -35z"/> <path d="M4425 2925 c-39 -13 -30 -34 32 -70 64 -38 91 -27 63 25 -22 40 -59 58 -95 45z"/> </g> </svg> 